# xmcd CD database file
#
# Track frame offsets:
#	150
#	30968
#	58545
#	82835
#	118089
#	154882
#	212002
#	254188
#
# Disc length: 3704 seconds
#
# Revision: 0
# Processed by: cddbd v1.5.2PL0 Copyright (c) Steve Scherf et al.
# Submitted via: jetAudio 7
#
DISCID=650e7608
DTITLE=王俊雄 - 諦聽中國系列之二禪松
DYEAR=1900
DGENRE=Newage
TTITLE0=禪松
TTITLE1=自性
TTITLE2=鏡湖
TTITLE3=六字大明頌
TTITLE4=念阿彌陀佛
TTITLE5=靈山咐囑
TTITLE6=彌陀七韵
TTITLE7=菩薩的心
EXTD=
EXTT0=
EXTT1=
EXTT2=
EXTT3=
EXTT4=
EXTT5=
EXTT6=
EXTT7=
PLAYORDER=
